<?xml version="1.0" encoding="utf-8"?>
<svg xmlns="http://www.w3.org/2000/svg" width="370" height="370" class="segno"><path transform="scale(10)" class="qrline" stroke="#1d4e6b" d="M2 2.5h7m6 0h1m1 0h4m2 0h2m3 0h7m-33 1h1m5 0h1m1 0h1m1 0h2m1 0h2m1 0h1m1 0h2m1 0h1m2 0h1m1 0h1m5 0h1m-33 1h1m1 0h3m1 0h1m3 0h1m1 0h4m2 0h6m2 0h1m1 0h3m1 0h1m-33 1h1m1 0h3m1 0h1m1 0h6m2 0h1m1 0h4m2 0h1m1 0h1m1 0h3m1 0h1m-33 1h1m1 0h3m1 0h1m1 0h1m3 0h1m4 0h2m1 0h1m5 0h1m1 0h3m1 0h1m-33 1h1m5 0h1m3 0h1m1 0h2m1 0h3m2 0h1m1 0h2m2 0h1m5 0h1m-33 1h7m1 0h1m1 0h1m1 0h1m1 0h1m1 0h1m1 0h1m1 0h1m1 0h1m1 0h1m1 0h7m-25 1h5m1 0h3m5 0h1m-22 1h1m1 0h4m1 0h1m3 0h1m2 0h3m5 0h4m1 0h2m1 0h1m-27 1h1m2 0h4m1 0h5m1 0h1m2 0h2m4 0h3m-31 1h2m1 0h1m2 0h1m2 0h1m1 0h2m1 0h2m5 0h1m1 0h2m1 0h1m1 0h5m-32 1h1m2 0h2m1 0h1m1 0h2m3 0h1m1 0h1m1 0h1m4 0h1m2 0h2m2 0h3m-30 1h1m2 0h1m2 0h3m4 0h2m1 0h2m2 0h2m1 0h1m5 0h1m-33 1h3m2 0h1m2 0h1m1 0h1m3 0h2m1 0h2m1 0h1m2 0h3m1 0h1m2 0h1m-30 1h2m3 0h3m5 0h2m1 0h5m2 0h1m1 0h1m2 0h2m-26 1h1m2 0h2m2 0h2m1 0h6m2 0h3m1 0h1m1 0h2m1 0h1m-33 1h2m3 0h4m3 0h1m2 0h1m1 0h1m2 0h1m1 0h2m1 0h5m-30 1h6m4 0h1m2 0h1m2 0h1m2 0h4m3 0h1m1 0h1m1 0h1m1 0h1m-33 1h3m1 0h1m1 0h4m2 0h1m1 0h1m4 0h1m3 0h3m1 0h1m1 0h2m1 0h1m-33 1h1m1 0h1m6 0h1m1 0h1m1 0h3m2 0h1m4 0h1m2 0h1m1 0h3m-29 1h2m1 0h3m2 0h3m1 0h1m1 0h2m1 0h2m6 0h1m1 0h1m2 0h1m-33 1h2m1 0h1m1 0h1m2 0h1m3 0h1m1 0h4m1 0h1m1 0h3m1 0h1m2 0h2m-30 1h1m1 0h2m1 0h6m7 0h1m1 0h4m1 0h1m2 0h1m1 0h3m-33 1h1m1 0h1m1 0h1m2 0h1m2 0h2m1 0h4m2 0h1m2 0h2m4 0h1m1 0h1m-31 1h2m1 0h4m1 0h1m3 0h1m1 0h3m2 0h2m2 0h7m-22 1h2m3 0h2m3 0h1m2 0h1m2 0h1m3 0h1m1 0h2m-32 1h7m4 0h1m4 0h2m1 0h1m2 0h3m1 0h1m1 0h1m1 0h2m-32 1h1m5 0h1m1 0h2m3 0h3m3 0h1m3 0h2m3 0h4m-32 1h1m1 0h3m1 0h1m1 0h3m1 0h1m1 0h3m1 0h2m2 0h7m3 0h1m-33 1h1m1 0h3m1 0h1m1 0h2m1 0h2m1 0h1m2 0h4m1 0h1m1 0h2m1 0h1m2 0h1m1 0h1m-33 1h1m1 0h3m1 0h1m2 0h1m1 0h1m2 0h1m1 0h2m1 0h1m1 0h1m2 0h2m1 0h2m1 0h3m-33 1h1m5 0h1m1 0h1m1 0h1m1 0h2m1 0h1m1 0h1m1 0h1m6 0h7m-33 1h7m3 0h3m1 0h2m3 0h1m2 0h8"/></svg>
